Shipping Wars S02 E14 Crusin' for a Bruisin' x264 CoLLuSioN

[img]http://www.aetv.com/news-page/images/news-generic-shipping-wars.jpg[/img]

Jennifer has two days to get a six-layer wedding cake to a reception completely intact. After picking up a Bozo the Clown arcade game, she books it to get to the wedding in time, but when she arrives, the pastry chefs do not like what they see. Marc wins a bid to ship a super sized vintage bus and attempts to keep it from inching off the trailer en route. Precariously affixed atop the extra long trailer, Marc finds himself in a pickle with a stop at the DOT inspection station.


Episode number: 2x14
Airdate: Tuesday October 02nd, 2012
Special Airtime: 10:30 pm

[img]http://s7.postimage.org/gqfvydy6x/Shipping_Wars_S02_E14_Crusin_For_A_Bruisin_m.jpg[/img]

General 
Complete name : Shipping Wars S02 E14 Crusin' For A Bruisin'.mp4 
Format : MPEG-4 
Format profile : Base Media / Version 2 
Codec ID : mp42 
File size : 171 MiB 
Duration : 21mn 9s 
Overall bit rate mode : Variable 
Overall bit rate : 1 128 Kbps 
Encoded date : UTC 2012-10-03 09:05:41 
Tagged date : UTC 2012-10-03 09:24:08 
Writing application : HandBrake 4999svn 2012100301 

Video 
ID : 1 
Format : AVC 
Format/Info : Advanced Video Codec 
Format profile : High@L3.0 
Format settings, CABAC : Yes 
Format settings, ReFrames : 4 frames 
Codec ID : avc1 
Codec ID/Info : Advanced Video Coding 
Duration : 21mn 9s 
Bit rate mode : Variable 
Bit rate : 995 Kbps 
Width : 720 pixels 
Height : 400 pixels 
Display aspect ratio : 16:9 
Frame rate mode : Constant 
Frame rate : 29.970 fps 
Color space : YUV 
Chroma subsampling : 4:2:0 
Bit depth : 8 bits 
Scan type : Progressive 
Bits/(Pixel*Frame) : 0.115 
Stream size : 150 MiB (88%) 
Writing library : x264 core 125 
Encoding settings : cabac=1 / ref=4 / deblock=1:-3:-3 / analyse=0x3:0x133 / me=umh / subme=7 / psy=1 / psy_rd=1.00:0.15 / mixed_ref=1 / me_range=32 / chroma_me=1 / trellis=1 / 8x8dct=1 / cqm=0 / deadzone=21,11 / fast_pskip=1 / chroma_qp_offset=-3 / threads=6 / lookahead_threads=1 / sliced_threads=0 / nr=0 / decimate=1 / interlaced=0 / bluray_compat=0 / constrained_intra=0 / bframes=4 / b_pyramid=2 / b_adapt=2 / b_bias=0 / direct=3 / weightb=1 / open_gop=0 / weightp=2 / keyint=300 / keyint_min=30 / scenecut=40 / intra_refresh=0 / rc_lookahead=50 / rc=crf / mbtree=1 / crf=22.0 / qcomp=0.60 / qpmin=3 / qpmax=69 / qpstep=4 / ip_ratio=1.40 / aq=1:1.00 
Encoded date : UTC 2012-10-03 09:05:41 
Tagged date : UTC 2012-10-03 09:24:08 
Color primaries : BT.709 
Transfer characteristics : BT.709 
Matrix coefficients : BT.709 

Audio 
ID : 2 
Format : AAC 
Format/Info : Advanced Audio Codec 
Format profile : LC 
Codec ID : 40 
Duration : 21mn 9s 
Bit rate mode : Variable 
Bit rate : 128 Kbps 
Maximum bit rate : 164 Kbps 
Channel(s) : 2 channels 
Channel positions : Front: L R 
Sampling rate : 48.0 KHz 
Compression mode : Lossy 
Delay relative to video : 67ms 
Stream size : 19.4 MiB (11%) 
Encoded date : UTC 2012-10-03 09:05:41 
Tagged date : UTC 2012-10-03 09:24:07 
